<svg width="31" height="26" viewBox="0 0 31 26" fill="none" xmlns="http://www.w3.org/2000/svg">
<path d="M12.035 1.76952C9.70631 0.657706 6.45143 0.113078 2.09375 0.0937417C1.68278 0.0881582 1.27987 0.207997 0.938753 0.437277C0.658761 0.62653 0.429564 0.881686 0.271321 1.1803C0.113078 1.47892 0.0306388 1.81184 0.0312534 2.1498V20.5898C0.0312534 21.8364 0.918128 22.7767 2.09375 22.7767C6.67444 22.7767 11.2693 23.2047 14.0214 25.806C14.0591 25.8418 14.1064 25.8657 14.1575 25.8748C14.2087 25.8838 14.2613 25.8777 14.309 25.8571C14.3566 25.8365 14.3972 25.8023 14.4256 25.7589C14.454 25.7154 14.469 25.6646 14.4688 25.6127V3.88487C14.4689 3.73828 14.4375 3.59337 14.3768 3.45994C14.3161 3.3265 14.2274 3.20766 14.1168 3.11144C13.4864 2.5725 12.7862 2.12112 12.035 1.76952ZM30.0613 0.435343C29.72 0.206634 29.317 0.0874643 28.9063 0.0937417C24.5486 0.113078 21.2937 0.655128 18.965 1.76952C18.2139 2.12049 17.5134 2.57098 16.8825 3.10886C16.7722 3.20525 16.6837 3.32414 16.6231 3.45755C16.5626 3.59095 16.5312 3.73578 16.5313 3.8823V25.6114C16.5312 25.6613 16.5459 25.7101 16.5735 25.7516C16.6011 25.7932 16.6404 25.8257 16.6863 25.845C16.7323 25.8644 16.783 25.8697 16.832 25.8604C16.881 25.851 16.9262 25.8274 16.9618 25.7925C18.6163 24.1489 21.5199 22.7748 28.9088 22.7754C29.4558 22.7754 29.9804 22.5581 30.3672 22.1713C30.754 21.7846 30.9713 21.26 30.9713 20.7129V2.15044C30.9721 1.81182 30.8895 1.47822 30.7307 1.1791C30.572 0.879986 30.3421 0.624547 30.0613 0.435343Z" fill="#0F172A"/>
</svg>
