<svg width="39" height="39" viewBox="0 0 39 39" fill="none" xmlns="http://www.w3.org/2000/svg">
<path d="M38.0268 4.074C38.0021 3.00782 37.5694 1.99172 36.818 1.23496C36.0665 0.478204 35.0535 0.0384115 33.9875 0.00615982V0H4.07456V0.00447968C3.00313 0.0295292 1.98252 0.466322 1.2247 1.22414C0.466882 1.98196 0.0300889 3.00257 0.00503937 4.074H0V33.987H0.00503937C0.0296793 35.0585 0.466342 36.0794 1.22425 36.8373C1.98216 37.5952 3.003 38.0318 4.07456 38.0565V38.061H33.9875V38.0559C35.0591 38.0313 36.0799 37.5946 36.8378 36.8367C37.5957 36.0788 38.0324 35.058 38.057 33.9864H38.0621V4.074H38.0268ZM9.50544 32.289C8.98417 32.2952 8.46685 32.1979 7.98348 32.0027C7.5001 31.8074 7.06028 31.5182 6.68949 31.1518C6.31871 30.7854 6.02433 30.349 5.82344 29.8679C5.62254 29.3869 5.51911 28.8707 5.51915 28.3494C5.51919 27.8281 5.62269 27.312 5.82365 26.831C6.02462 26.35 6.31905 25.9136 6.68989 25.5472C7.06073 25.1809 7.50059 24.8917 7.984 24.6966C8.4674 24.5014 8.98473 24.4041 9.506 24.4104C10.5426 24.4228 11.5326 24.8434 12.2612 25.5809C12.9899 26.3183 13.3984 27.3133 13.3984 28.35C13.3983 29.3867 12.9896 30.3816 12.2608 31.119C11.5321 31.8563 10.5421 32.2768 9.50544 32.289ZM9.50544 22.9701C8.98417 22.9763 8.46685 22.8789 7.98348 22.6837C7.5001 22.4885 7.06028 22.1993 6.68949 21.8328C6.31871 21.4664 6.02433 21.03 5.82344 20.549C5.62254 20.0679 5.51911 19.5518 5.51915 19.0305C5.51919 18.5092 5.62269 17.9931 5.82365 17.512C6.02462 17.031 6.31905 16.5947 6.68989 16.2283C7.06073 15.8619 7.50059 15.5727 7.984 15.3776C8.4674 15.1825 8.98473 15.0852 9.506 15.0914C10.5426 15.1039 11.5326 15.5244 12.2612 16.2619C12.9899 16.9994 13.3984 17.9943 13.3984 19.031C13.3983 20.0677 12.9896 21.0626 12.2608 21.8C11.5321 22.5374 10.5421 22.9578 9.50544 22.9701ZM9.50544 13.4697C8.98417 13.4759 8.46685 13.3785 7.98348 13.1833C7.5001 12.9881 7.06028 12.6989 6.68949 12.3324C6.31871 11.966 6.02433 11.5296 5.82344 11.0486C5.62254 10.5675 5.51911 10.0514 5.51915 9.53008C5.51919 9.00877 5.62269 8.49265 5.82365 8.01164C6.02462 7.53062 6.31905 7.09427 6.68989 6.72788C7.06073 6.36149 7.50059 6.07235 7.984 5.8772C8.4674 5.68205 8.98473 5.58479 9.506 5.59104C10.5426 5.60347 11.5326 6.02402 12.2612 6.76149C12.9899 7.49897 13.3984 8.49393 13.3984 9.53064C13.3983 10.5673 12.9896 11.5622 12.2608 12.2996C11.5321 13.037 10.5421 13.4574 9.50544 13.4697ZM28.5561 32.4587C28.0388 32.4588 27.5266 32.357 27.0487 32.1591C26.5708 31.9612 26.1366 31.6711 25.7708 31.3054C25.405 30.9396 25.1149 30.5054 24.9169 30.0276C24.7189 29.5497 24.617 29.0375 24.617 28.5202C24.617 27.4755 25.0321 26.4735 25.7708 25.7347C26.5096 24.996 27.5116 24.5809 28.5564 24.5809C29.6011 24.5809 30.6031 24.996 31.3419 25.7347C32.0806 26.4735 32.4957 27.4755 32.4957 28.5202C32.4956 29.0375 32.3937 29.5497 32.1956 30.0276C31.9976 30.5055 31.7074 30.9397 31.3416 31.3054C30.9757 31.6711 30.5415 31.9612 30.0635 32.1591C29.5856 32.357 29.0734 32.4588 28.5561 32.4587ZM28.5566 22.9701C28.0354 22.9763 27.5181 22.8789 27.0347 22.6837C26.5513 22.4885 26.1115 22.1993 25.7407 21.8328C25.3699 21.4664 25.0755 21.03 24.8746 20.549C24.6737 20.0679 24.5703 19.5518 24.5704 19.0305C24.5704 18.5092 24.6739 17.9931 24.8749 17.512C25.0758 17.031 25.3703 16.5947 25.7411 16.2283C26.1119 15.8619 26.5518 15.5727 27.0352 15.3776C27.5186 15.1825 28.0359 15.0852 28.5572 15.0914C29.5938 15.1039 30.5838 15.5244 31.3124 16.2619C32.0411 16.9994 32.4496 17.9943 32.4496 19.031C32.4495 20.0677 32.0408 21.0626 31.312 21.8C30.5833 22.5374 29.5933 22.9578 28.5566 22.9701ZM28.5561 13.4697C28.0388 13.4698 27.5266 13.3679 27.0487 13.17C26.5708 12.9721 26.1366 12.6821 25.7708 12.3163C25.405 11.9506 25.1149 11.5164 24.9169 11.0385C24.7189 10.5606 24.617 10.0485 24.617 9.5312C24.617 8.48643 25.0321 7.48445 25.7708 6.74568C26.5096 6.00691 27.5116 5.59188 28.5564 5.59188C29.6011 5.59188 30.6031 6.00691 31.3419 6.74568C32.0806 7.48445 32.4957 8.48643 32.4957 9.5312C32.4956 10.0485 32.3937 10.5607 32.1956 11.0386C31.9976 11.5164 31.7074 11.9506 31.3416 12.3164C30.9757 12.6821 30.5415 12.9722 30.0635 13.1701C29.5856 13.3679 29.0734 13.4698 28.5561 13.4697Z" fill="#0044C5"/>
</svg>
