<svg width="38" height="38" viewBox="0 0 38 38" fill="none" xmlns="http://www.w3.org/2000/svg">
<path d="M35.7291 25.0887C32.7474 25.955 30.9937 27.2577 30.0509 28.6657C29.1901 29.9516 28.9722 31.3588 29.1769 32.74C29.2814 32.727 29.3878 32.7135 29.4937 32.7001C29.5823 32.6889 29.6705 32.6778 29.757 32.667C32.1688 32.3655 33.8645 31.3542 34.8504 29.9255C35.7343 28.6443 36.0687 26.9924 35.7291 25.0887Z" fill="#FCAD38"/>
<path d="M26.7783 21.803C23.9194 23.0143 22.3313 24.5144 21.5609 26.0236C20.8575 27.4019 20.8067 28.8249 21.1724 30.1723C21.3602 30.1259 21.5541 30.0775 21.7398 30.0316C24.0994 29.4482 25.6643 28.2444 26.4751 26.7096C27.2023 25.3332 27.3398 23.6535 26.7784 21.803L26.7783 21.803Z" fill="#FCAD38"/>
<path d="M3.52262 30.8607C2.13147 32.0825 1.89968 33.6576 2.3355 34.7946C2.57463 35.4186 3.00881 35.9021 3.59632 36.1583C4.11786 36.3858 4.78182 36.4434 5.60587 36.1925C5.86727 35.0443 5.70577 34.1181 5.28851 33.2322C4.90124 32.4099 4.26875 31.6306 3.52262 30.8605V30.8607Z" fill="#FCAD38"/>
<path d="M13.0527 33.9395C12.016 34.3314 10.9857 34.7699 9.97171 35.2691C10.1538 35.8459 10.5104 36.3185 11.0185 36.6158C11.5095 36.903 12.1621 37.0383 13.0098 36.8862C13.1074 36.6119 13.1777 36.348 13.2235 36.0921C13.361 35.3245 13.2785 34.6288 13.0527 33.9395Z" fill="#FCAD38"/>
<path d="M30.8803 3.82064C28.2489 4.0177 24.5951 4.8632 21.8777 5.99184C22.0583 6.72885 22.248 7.46362 22.4466 8.19599C25.342 7.00923 28.227 6.19097 31.08 6.09463C31.0066 5.32053 30.9398 4.55838 30.8803 3.82064Z" fill="#FCAD38"/>
<path d="M19.4602 1.25364C16.6577 1.80041 12.7551 3.24174 10.164 4.82668C10.446 5.44314 10.788 6.11957 11.1609 6.83756C14.0393 5.19644 16.9533 3.94273 19.9263 3.48814C19.7657 2.74434 19.6103 1.99941 19.4602 1.25342V1.25364Z" fill="#FCAD38"/>
<path d="M20.2145 4.79588C17.4329 5.20675 14.6182 6.40197 11.781 8.02187C12.1442 8.7127 12.5208 9.43054 12.8945 10.171C15.3222 8.68665 17.9216 7.58227 20.7559 7.07284C20.5648 6.30838 20.3848 5.54772 20.2145 4.79588Z" fill="#473BF0"/>
<path d="M21.0906 8.37018C18.3679 8.84407 15.8639 9.90695 13.4873 11.3744C13.8552 12.1426 14.2081 12.9248 14.5246 13.711C15.2353 15.4766 15.7666 17.2664 15.8583 18.9942C15.95 20.722 15.5813 22.4091 14.4839 23.8206L14.4122 23.9126L4.63464 30.0894C5.37416 30.8665 6.04369 31.7008 6.49679 32.6632C6.8759 33.4679 7.0878 34.3672 7.0547 35.346C11.2317 32.808 15.7518 31.5293 19.8758 30.494C19.4496 28.8797 19.5116 27.0997 20.3709 25.4161C21.3047 23.5868 23.1452 21.9157 26.1432 20.6222C23.8985 17.3997 22.2931 12.8902 21.0907 8.37025L21.0906 8.37018Z" fill="#473BF0"/>
<path d="M31.6619 11.0799C28.9762 11.226 26.4308 11.9515 23.9617 13.0756C24.9998 15.9785 26.2363 18.6052 27.712 20.5101L27.7721 20.5881L27.8076 20.6801C28.724 23.0713 28.6666 25.4216 27.6564 27.3338C26.6463 29.2459 24.7075 30.6742 22.0603 31.3285C21.9694 31.351 21.8783 31.3735 21.7871 31.396C19.3798 31.9908 16.8388 32.6186 14.3104 33.486C14.5919 34.3296 14.6966 35.2475 14.5486 36.2152C18.9953 34.1867 23.6345 33.4494 27.8516 32.9067C27.6183 31.2535 27.8895 29.4934 28.9408 27.9226C30.0834 26.2158 32.1078 24.773 35.2372 23.8413C34.7748 22.9752 34.3615 22.0339 33.9913 21.0369C32.8809 18.0457 32.1586 14.5524 31.6619 11.0799Z" fill="#473BF0"/>
<path d="M31.2125 7.42708C28.5117 7.50449 25.6951 8.29886 22.8102 9.49185C23.0366 10.2725 23.2747 11.0467 23.5257 11.807C26.0467 10.673 28.6869 9.9195 31.4822 9.75191C31.3837 8.97798 31.2938 8.20299 31.2125 7.42708Z" fill="#473BF0"/>
</svg>
