<svg width="38" height="40" viewBox="0 0 38 40" fill="none" xmlns="http://www.w3.org/2000/svg">
<path fill-rule="evenodd" clip-rule="evenodd" d="M35.8421 23.1579V33.6842C35.8421 35.3592 35.1767 36.9657 33.9923 38.1501C32.8078 39.3345 31.2014 40 29.5263 40H21.1053V23.1579H35.8421ZM16.8948 23.1579V40H8.47372C6.79867 40 5.19223 39.3345 4.00779 38.1501C2.82335 36.9657 2.15794 35.3592 2.15794 33.6842V23.1579H16.8948ZM12.6842 5.91292e-06C13.8792 -0.0014118 15.0606 0.252124 16.1498 0.743683C17.2389 1.23524 18.2106 1.95351 19 2.85053C19.7895 1.95351 20.7612 1.23524 21.8503 0.743683C22.9394 0.252124 24.1209 -0.0014118 25.3158 5.91292e-06H26.3684C27.206 5.91292e-06 28.0092 0.332711 28.6014 0.924931C29.1936 1.51715 29.5263 2.32037 29.5263 3.1579V4.21053C29.5263 5.74526 29.1158 7.18316 28.4 8.42105H33.7369C34.8536 8.42105 35.9245 8.86466 36.7141 9.65428C37.5038 10.4439 37.9474 11.5149 37.9474 12.6316V16.8421C37.9474 17.6084 37.7432 18.3284 37.3832 18.9474H21.1053V12.6316C21.1053 12.0732 20.8835 11.5377 20.4887 11.1429C20.0939 10.7481 19.5584 10.5263 19 10.5263C18.4417 10.5263 17.9062 10.7481 17.5114 11.1429C17.1166 11.5377 16.8948 12.0732 16.8948 12.6316V18.9474H0.616887C0.246371 18.3077 0.0517139 17.5813 0.0526769 16.8421V12.6316C0.0526769 11.5149 0.496284 10.4439 1.28591 9.65428C2.07554 8.86466 3.1465 8.42105 4.2632 8.42105H9.60004C8.85993 7.1414 8.47136 5.68879 8.47372 4.21053V3.1579C8.47372 2.32037 8.80643 1.51715 9.39865 0.924931C9.99087 0.332711 10.7941 5.91292e-06 11.6316 5.91292e-06H12.6842ZM12.6842 4.21053C12.6842 5.32723 13.1279 6.39819 13.9175 7.18782C14.7071 7.97744 15.7781 8.42105 16.8948 8.42105C16.8948 7.30435 16.4512 6.23339 15.6615 5.44376C14.8719 4.65413 13.8009 4.21053 12.6842 4.21053ZM25.3158 4.21053C24.1991 4.21053 23.1281 4.65413 22.3385 5.44376C21.5489 6.23339 21.1053 7.30435 21.1053 8.42105C22.222 8.42105 23.2929 7.97744 24.0826 7.18782C24.8722 6.39819 25.3158 5.32723 25.3158 4.21053Z" fill="#0044C5"/>
</svg>
