<svg width="33" height="34" viewBox="0 0 33 34" fill="none" xmlns="http://www.w3.org/2000/svg">
<path d="M13.035 5.26952C10.7063 4.15771 7.45143 3.61308 3.09375 3.59374C2.68278 3.58816 2.27987 3.708 1.93875 3.93728C1.65876 4.12653 1.42956 4.38169 1.27132 4.6803C1.11308 4.97892 1.03064 5.31184 1.03125 5.6498V24.0898C1.03125 25.3364 1.91813 26.2767 3.09375 26.2767C7.67444 26.2767 12.2693 26.7047 15.0214 29.306C15.0591 29.3418 15.1064 29.3657 15.1575 29.3748C15.2087 29.3838 15.2613 29.3777 15.309 29.3571C15.3566 29.3365 15.3972 29.3023 15.4256 29.2589C15.454 29.2154 15.469 29.1646 15.4688 29.1127V7.38487C15.4689 7.23828 15.4375 7.09337 15.3768 6.95994C15.3161 6.8265 15.2274 6.70766 15.1168 6.61144C14.4864 6.0725 13.7862 5.62112 13.035 5.26952ZM31.0613 3.93534C30.72 3.70663 30.317 3.58746 29.9063 3.59374C25.5486 3.61308 22.2937 4.15513 19.965 5.26952C19.2139 5.62049 18.5134 6.07098 17.8825 6.60886C17.7722 6.70525 17.6837 6.82414 17.6231 6.95755C17.5626 7.09095 17.5312 7.23578 17.5313 7.3823V29.1114C17.5312 29.1613 17.5459 29.2101 17.5735 29.2516C17.6011 29.2932 17.6404 29.3257 17.6863 29.345C17.7323 29.3644 17.783 29.3697 17.832 29.3604C17.881 29.351 17.9262 29.3274 17.9618 29.2925C19.6163 27.6489 22.5199 26.2748 29.9088 26.2754C30.4558 26.2754 30.9804 26.0581 31.3672 25.6713C31.754 25.2846 31.9713 24.76 31.9713 24.2129V5.65044C31.9721 5.31182 31.8895 4.97822 31.7307 4.6791C31.572 4.37999 31.3421 4.12455 31.0613 3.93534Z" fill="white"/>
</svg>
