<svg id="OBJECTS" xmlns="http://www.w3.org/2000/svg" viewBox="0 0 99.53 40.25"><defs><style>.cls-1{fill:#ff0343;}</style></defs><path class="cls-1" d="M415.63,317.2l30.2-8.65-51.42,6.14s30.55,20.06,29.24,20.08-60,13.26-60,13.26l89.2-2.59Z" transform="translate(-353.28 -308.55)"/><polygon points="22.32 16.35 20.32 18.56 28.16 22.44 22.32 16.35"/><polygon points="17.99 20.23 15.99 22.44 23.83 26.32 17.99 20.23"/><path d="M363.29,338.65s-12,.13-9.73,10.15l26.57-5.74Z" transform="translate(-353.28 -308.55)"/><polygon class="cls-1" points="66.79 25.42 42.81 8.99 60.71 24.17 35.59 32.01 66.79 25.42"/><path d="M393.07,315.36l-15.5,7.22S388.4,324.67,393.07,315.36Z" transform="translate(-353.28 -308.55)"/></svg>