<svg width="184" height="24" viewBox="0 0 184 24" fill="none" xmlns="http://www.w3.org/2000/svg">
<path d="M17.812 5.01699H6.145C3.855 5.01699 2 6.85199 2 9.11599V14.884C2 17.148 3.856 18.984 6.145 18.984H17.812C20.102 18.984 21.957 17.148 21.957 14.884V9.11599C21.957 6.85199 20.101 5.01599 17.812 5.01599V5.01699ZM15.009 12.28L9.552 14.855C9.51872 14.871 9.48192 14.8784 9.44503 14.8763C9.40815 14.8743 9.37237 14.863 9.34103 14.8434C9.3097 14.8239 9.28382 14.7967 9.2658 14.7645C9.24779 14.7322 9.23822 14.6959 9.238 14.659V9.34999C9.23867 9.31286 9.24872 9.27651 9.26722 9.24432C9.28573 9.21212 9.31208 9.18513 9.34382 9.16587C9.37556 9.1466 9.41167 9.13568 9.44877 9.13413C9.48587 9.13258 9.52276 9.14044 9.556 9.15699L15.014 11.892C15.0504 11.9101 15.0809 11.9381 15.102 11.9728C15.1232 12.0075 15.1341 12.0474 15.1336 12.0881C15.1331 12.1287 15.1211 12.1683 15.0991 12.2025C15.077 12.2366 15.0458 12.2638 15.009 12.281V12.28Z" fill="#475569"/>
<path d="M49.0462 5.865V8.613H47.0322V11.973H49.0462V21.959H53.1802V11.974H55.9552C55.9552 11.974 56.2152 10.363 56.3412 8.601H53.1972V6.303C53.1972 5.96 53.6472 5.498 54.0932 5.498H56.3472V2H53.2832C48.9432 2 49.0462 5.363 49.0462 5.865Z" fill="#475569"/>
<path d="M102 5.90698C101.25 6.23436 100.456 6.44902 99.644 6.54398C100.497 6.04321 101.138 5.24909 101.448 4.30998C100.64 4.78031 99.7587 5.11158 98.841 5.28998C98.4545 4.88519 97.9897 4.56337 97.4748 4.34416C96.9598 4.12495 96.4056 4.01295 95.846 4.01498C93.58 4.01498 91.743 5.82498 91.743 8.05498C91.743 8.37098 91.779 8.67998 91.849 8.97498C90.2236 8.89768 88.6321 8.48239 87.1762 7.75562C85.7202 7.02885 84.4318 6.00656 83.393 4.75398C83.0288 5.36838 82.8374 6.06976 82.839 6.78398C82.8397 7.45195 83.0068 8.10921 83.3253 8.69637C83.6438 9.28354 84.1035 9.78209 84.663 10.147C84.0125 10.126 83.376 9.95231 82.805 9.63998V9.68998C82.805 11.648 84.22 13.281 86.095 13.653C85.7426 13.7465 85.3796 13.7939 85.015 13.794C84.75 13.794 84.493 13.769 84.242 13.719C84.5101 14.5269 85.0231 15.2313 85.7098 15.7343C86.3965 16.2373 87.2228 16.514 88.074 16.526C86.6141 17.6505 84.8218 18.258 82.979 18.253C82.647 18.253 82.321 18.233 82 18.197C83.8813 19.3877 86.0626 20.0183 88.289 20.015C95.836 20.015 99.962 13.858 99.962 8.51898L99.948 7.99598C100.753 7.42965 101.448 6.72183 102 5.90698Z" fill="#475569"/>
</svg>
