<svg width="58" height="40" viewBox="0 0 58 40" fill="none" xmlns="http://www.w3.org/2000/svg">
<path d="M6.8571 5C6.8571 3.67392 7.38388 2.40215 8.32157 1.46447C9.25925 0.526784 10.531 0 11.8571 0C13.1832 0 14.455 0.526784 15.3926 1.46447C16.3303 2.40215 16.8571 3.67392 16.8571 5C16.8571 6.32608 16.3303 7.59785 15.3926 8.53553C14.455 9.47322 13.1832 10 11.8571 10C10.531 10 9.25925 9.47322 8.32157 8.53553C7.38388 7.59785 6.8571 6.32608 6.8571 5ZM6.14281 19.0804C5.24996 20.0804 4.71424 21.4107 4.71424 22.8571C4.71424 24.3036 5.24996 25.6339 6.14281 26.6339V19.0804ZM19.0357 14.6786C16.3839 17.0268 14.7142 20.4643 14.7142 24.2857C14.7142 27.3482 15.7857 30.1607 17.5714 32.3661V34.2857C17.5714 35.8661 16.2946 37.1429 14.7142 37.1429H8.99996C7.4196 37.1429 6.14281 35.8661 6.14281 34.2857V31.8929C2.76781 30.2857 0.428528 26.8482 0.428528 22.8571C0.428528 17.3304 4.90174 12.8571 10.4285 12.8571H13.2857C15.4285 12.8571 17.4107 13.5268 19.0357 14.6696V14.6786ZM40.4285 34.2857V32.3661C42.2142 30.1607 43.2857 27.3482 43.2857 24.2857C43.2857 20.4643 41.616 17.0268 38.9642 14.6696C40.5892 13.5268 42.5714 12.8571 44.7142 12.8571H47.5714C53.0982 12.8571 57.5714 17.3304 57.5714 22.8571C57.5714 26.8482 55.2321 30.2857 51.8571 31.8929V34.2857C51.8571 35.8661 50.5803 37.1429 49 37.1429H43.2857C41.7053 37.1429 40.4285 35.8661 40.4285 34.2857ZM41.1428 5C41.1428 3.67392 41.6696 2.40215 42.6073 1.46447C43.545 0.526784 44.8167 0 46.1428 0C47.4689 0 48.7407 0.526784 49.6783 1.46447C50.616 2.40215 51.1428 3.67392 51.1428 5C51.1428 6.32608 50.616 7.59785 49.6783 8.53553C48.7407 9.47322 47.4689 10 46.1428 10C44.8167 10 43.545 9.47322 42.6073 8.53553C41.6696 7.59785 41.1428 6.32608 41.1428 5ZM51.8571 19.0804V26.6429C52.75 25.6339 53.2857 24.3125 53.2857 22.8661C53.2857 21.4196 52.75 20.0893 51.8571 19.0893V19.0804ZM29 0C30.5155 0 31.9689 0.602039 33.0406 1.67368C34.1122 2.74531 34.7142 4.19876 34.7142 5.71429C34.7142 7.22981 34.1122 8.68326 33.0406 9.7549C31.9689 10.8265 30.5155 11.4286 29 11.4286C27.4844 11.4286 26.031 10.8265 24.9593 9.7549C23.8877 8.68326 23.2857 7.22981 23.2857 5.71429C23.2857 4.19876 23.8877 2.74531 24.9593 1.67368C26.031 0.602039 27.4844 0 29 0ZM21.8571 24.2857C21.8571 25.7321 22.3928 27.0536 23.2857 28.0625V20.5089C22.3928 21.5179 21.8571 22.8393 21.8571 24.2857ZM34.7142 20.5089V28.0714C35.6071 27.0625 36.1428 25.7411 36.1428 24.2946C36.1428 22.8482 35.6071 21.5179 34.7142 20.5179V20.5089ZM40.4285 24.2857C40.4285 28.2768 38.0892 31.7143 34.7142 33.3214V37.1429C34.7142 38.7232 33.4375 40 31.8571 40H26.1428C24.5625 40 23.2857 38.7232 23.2857 37.1429V33.3214C19.9107 31.7143 17.5714 28.2768 17.5714 24.2857C17.5714 18.7589 22.0446 14.2857 27.5714 14.2857H30.4285C35.9553 14.2857 40.4285 18.7589 40.4285 24.2857Z" fill="#0044C5"/>
</svg>
